<mxfile>
    <diagram id="j8jkCs3LzQrO0PYmiRq9" name="Page-1">
        <mxGraphModel dx="3400" dy="1185" grid="1" gridSize="10" guides="1" tooltips="1" connect="1" arrows="1" fold="1" page="1" pageScale="1" pageWidth="827" pageHeight="1169" math="0" shadow="1">
            <root>
                <mxCell id="0"/>
                <mxCell id="1" parent="0"/>
                <mxCell id="48" value="&lt;div style=&quot;color: rgb(248 , 248 , 242) ; background-color: rgb(39 , 40 , 34) ; font-family: &amp;#34;menlo&amp;#34; , &amp;#34;monaco&amp;#34; , &amp;#34;courier new&amp;#34; , monospace ; line-height: 18px&quot;&gt;&lt;div&gt;&lt;span style=&quot;color: #a6e22e ; font-weight: bold&quot;&gt;# objetivo general&lt;/span&gt;&lt;/div&gt;&lt;div&gt;Realizar un api backend con LOGIN/REGISTER de google&amp;nbsp;&lt;br&gt;&lt;/div&gt;&lt;/div&gt;&lt;div style=&quot;color: rgb(248 , 248 , 242) ; background-color: rgb(39 , 40 , 34) ; font-family: &amp;#34;menlo&amp;#34; , &amp;#34;monaco&amp;#34; , &amp;#34;courier new&amp;#34; , monospace ; line-height: 18px&quot;&gt;la api permite logear y ver la aplicacion&lt;/div&gt;&lt;div style=&quot;color: rgb(248 , 248 , 242) ; background-color: rgb(39 , 40 , 34) ; font-family: &amp;#34;menlo&amp;#34; , &amp;#34;monaco&amp;#34; , &amp;#34;courier new&amp;#34; , monospace ; line-height: 18px&quot;&gt;la api permite &quot;crud&quot; de roles para futuros usuarios&lt;/div&gt;&lt;div style=&quot;color: rgb(248 , 248 , 242) ; background-color: rgb(39 , 40 , 34) ; font-family: &amp;#34;menlo&amp;#34; , &amp;#34;monaco&amp;#34; , &amp;#34;courier new&amp;#34; , monospace ; line-height: 18px&quot;&gt;la api permite revisar sus datos+role personales en /myprofile&lt;/div&gt;" style="text;html=1;strokeColor=none;fillColor=none;align=center;verticalAlign=middle;whiteSpace=wrap;rounded=0;" vertex="1" parent="1">
                    <mxGeometry x="10" y="50" width="860" height="20" as="geometry"/>
                </mxCell>
                <mxCell id="51" value="" style="group" vertex="1" connectable="0" parent="1">
                    <mxGeometry x="30" y="360" width="645" height="380" as="geometry"/>
                </mxCell>
                <mxCell id="28" value="routes" style="text;html=1;strokeColor=none;align=center;verticalAlign=middle;whiteSpace=wrap;rounded=0;" parent="51" vertex="1">
                    <mxGeometry x="600" y="57" width="40" height="20" as="geometry"/>
                </mxCell>
                <mxCell id="31" value="controller" style="text;html=1;strokeColor=none;align=center;verticalAlign=middle;whiteSpace=wrap;rounded=0;" parent="51" vertex="1">
                    <mxGeometry x="605" y="100" width="40" height="20" as="geometry"/>
                </mxCell>
                <mxCell id="32" value="model" style="text;html=1;strokeColor=none;align=center;verticalAlign=middle;whiteSpace=wrap;rounded=0;" parent="51" vertex="1">
                    <mxGeometry x="600" y="160" width="40" height="20" as="geometry"/>
                </mxCell>
                <mxCell id="50" value="" style="group" vertex="1" connectable="0" parent="51">
                    <mxGeometry width="593" height="380" as="geometry"/>
                </mxCell>
                <mxCell id="6" value="" style="group" parent="50" vertex="1" connectable="0">
                    <mxGeometry x="80" width="513" height="380" as="geometry"/>
                </mxCell>
                <mxCell id="4" value="" style="rounded=1;whiteSpace=wrap;html=1;" parent="6" vertex="1">
                    <mxGeometry width="510" height="380" as="geometry"/>
                </mxCell>
                <mxCell id="5" value="BACKEND api" style="text;html=1;strokeColor=none;fillColor=none;align=center;verticalAlign=middle;whiteSpace=wrap;rounded=0;" parent="6" vertex="1">
                    <mxGeometry x="30" y="15.238095238095237" width="40" height="30.476190476190474" as="geometry"/>
                </mxCell>
                <mxCell id="46" style="edgeStyle=orthogonalEdgeStyle;rounded=0;orthogonalLoop=1;jettySize=auto;html=1;entryX=0.5;entryY=0;entryDx=0;entryDy=0;" parent="6" source="13" target="29" edge="1">
                    <mxGeometry relative="1" as="geometry"/>
                </mxCell>
                <mxCell id="13" value="" style="rounded=0;whiteSpace=wrap;html=1;" parent="6" vertex="1">
                    <mxGeometry y="45.71" width="510" height="34.29" as="geometry"/>
                </mxCell>
                <mxCell id="21" value="/auth/" style="text;html=1;strokeColor=none;fillColor=none;align=center;verticalAlign=middle;whiteSpace=wrap;rounded=0;" parent="6" vertex="1">
                    <mxGeometry x="46.5" y="52.86" width="100" height="20" as="geometry"/>
                </mxCell>
                <mxCell id="47" style="edgeStyle=orthogonalEdgeStyle;rounded=0;orthogonalLoop=1;jettySize=auto;html=1;entryX=0.5;entryY=0;entryDx=0;entryDy=0;" parent="6" source="29" target="30" edge="1">
                    <mxGeometry relative="1" as="geometry"/>
                </mxCell>
                <mxCell id="29" value="" style="rounded=0;whiteSpace=wrap;html=1;" parent="6" vertex="1">
                    <mxGeometry y="100" width="510" height="60" as="geometry"/>
                </mxCell>
                <mxCell id="44" style="edgeStyle=orthogonalEdgeStyle;rounded=0;orthogonalLoop=1;jettySize=auto;html=1;entryX=1;entryY=0.5;entryDx=0;entryDy=0;" parent="6" source="30" target="34" edge="1">
                    <mxGeometry relative="1" as="geometry"/>
                </mxCell>
                <mxCell id="30" value="" style="rounded=0;whiteSpace=wrap;html=1;" parent="6" vertex="1">
                    <mxGeometry y="180" width="510" height="80" as="geometry"/>
                </mxCell>
                <mxCell id="40" value="async getData = await model.findAll();" style="text;html=1;strokeColor=none;fillColor=none;align=center;verticalAlign=middle;whiteSpace=wrap;rounded=0;" parent="6" vertex="1">
                    <mxGeometry x="146.5" y="120" width="220" height="20" as="geometry"/>
                </mxCell>
                <mxCell id="41" value="model defined(define modelo/ schema)" style="text;html=1;strokeColor=none;fillColor=none;align=center;verticalAlign=middle;whiteSpace=wrap;rounded=0;" parent="6" vertex="1">
                    <mxGeometry x="145" y="190" width="220" height="20" as="geometry"/>
                </mxCell>
                <mxCell id="42" value="model.create(registra algun dato ejemplo)" style="text;html=1;strokeColor=none;fillColor=none;align=center;verticalAlign=middle;whiteSpace=wrap;rounded=0;" parent="6" vertex="1">
                    <mxGeometry x="130" y="220" width="290" height="20" as="geometry"/>
                </mxCell>
                <mxCell id="39" value="" style="group" parent="6" vertex="1" connectable="0">
                    <mxGeometry x="40" y="269" width="80" height="110" as="geometry"/>
                </mxCell>
                <mxCell id="34" value="" style="rounded=1;whiteSpace=wrap;html=1;" parent="39" vertex="1">
                    <mxGeometry width="80" height="110" as="geometry"/>
                </mxCell>
                <mxCell id="35" value="file.sqlite" style="shape=cylinder3;whiteSpace=wrap;html=1;boundedLbl=1;backgroundOutline=1;size=15;" parent="39" vertex="1">
                    <mxGeometry x="10" y="20" width="60" height="79.52" as="geometry"/>
                </mxCell>
                <mxCell id="36" value="sequelize" style="text;html=1;strokeColor=none;fillColor=none;align=center;verticalAlign=middle;whiteSpace=wrap;rounded=0;" parent="39" vertex="1">
                    <mxGeometry x="20" width="40" height="20" as="geometry"/>
                </mxCell>
                <mxCell id="12" value="/roles" style="text;html=1;strokeColor=none;fillColor=none;align=center;verticalAlign=middle;whiteSpace=wrap;rounded=0;" parent="6" vertex="1">
                    <mxGeometry x="351" y="52.860000000000014" width="100" height="20" as="geometry"/>
                </mxCell>
                <mxCell id="127" value="/myprofile" style="text;html=1;strokeColor=none;fillColor=none;align=center;verticalAlign=middle;whiteSpace=wrap;rounded=0;" vertex="1" parent="6">
                    <mxGeometry x="130" y="52.860000000000014" width="40" height="20" as="geometry"/>
                </mxCell>
                <mxCell id="129" value="/users" style="text;html=1;strokeColor=none;fillColor=none;align=center;verticalAlign=middle;whiteSpace=wrap;rounded=0;" vertex="1" parent="6">
                    <mxGeometry x="250" y="52.860000000000014" width="40" height="20" as="geometry"/>
                </mxCell>
                <mxCell id="113" value="&lt;span&gt;middlware IsLoged ?&lt;/span&gt;" style="rounded=0;whiteSpace=wrap;html=1;" vertex="1" parent="50">
                    <mxGeometry x="-30" y="45.70999999999998" width="110" height="34.29" as="geometry"/>
                </mxCell>
                <mxCell id="114" style="edgeStyle=orthogonalEdgeStyle;rounded=0;orthogonalLoop=1;jettySize=auto;html=1;entryX=0.5;entryY=0;entryDx=0;entryDy=0;" edge="1" parent="1" source="21" target="108">
                    <mxGeometry relative="1" as="geometry">
                        <Array as="points">
                            <mxPoint x="206" y="230"/>
                            <mxPoint x="-290" y="230"/>
                        </Array>
                    </mxGeometry>
                </mxCell>
                <mxCell id="122" style="edgeStyle=orthogonalEdgeStyle;rounded=0;orthogonalLoop=1;jettySize=auto;html=1;entryX=0.5;entryY=0;entryDx=0;entryDy=0;" edge="1" parent="1" source="12" target="116">
                    <mxGeometry relative="1" as="geometry">
                        <Array as="points">
                            <mxPoint x="490" y="290"/>
                            <mxPoint x="880" y="290"/>
                        </Array>
                    </mxGeometry>
                </mxCell>
                <mxCell id="123" value="" style="group" vertex="1" connectable="0" parent="1">
                    <mxGeometry x="-470" y="330" width="380" height="380" as="geometry"/>
                </mxCell>
                <mxCell id="90" value="" style="group" vertex="1" connectable="0" parent="123">
                    <mxGeometry y="120" width="120" height="260" as="geometry"/>
                </mxCell>
                <mxCell id="85" value="" style="rounded=1;whiteSpace=wrap;html=1;" vertex="1" parent="90">
                    <mxGeometry width="120" height="260" as="geometry"/>
                </mxCell>
                <mxCell id="86" value="/google" style="text;html=1;strokeColor=none;fillColor=none;align=center;verticalAlign=middle;whiteSpace=wrap;rounded=0;" vertex="1" parent="90">
                    <mxGeometry x="21.818181818181817" y="10" width="21.818181818181817" height="20" as="geometry"/>
                </mxCell>
                <mxCell id="106" value="inicia proceso de login para google" style="text;html=1;strokeColor=none;fillColor=none;align=center;verticalAlign=middle;whiteSpace=wrap;rounded=0;" vertex="1" parent="90">
                    <mxGeometry y="60" width="120" height="160" as="geometry"/>
                </mxCell>
                <mxCell id="92" value="" style="group" vertex="1" connectable="0" parent="123">
                    <mxGeometry x="130" y="120" width="120" height="260" as="geometry"/>
                </mxCell>
                <mxCell id="93" value="redirecciona al completarse el proceso" style="rounded=1;whiteSpace=wrap;html=1;" vertex="1" parent="92">
                    <mxGeometry width="120" height="260" as="geometry"/>
                </mxCell>
                <mxCell id="94" value="/google/callback" style="text;html=1;strokeColor=none;fillColor=none;align=center;verticalAlign=middle;whiteSpace=wrap;rounded=0;" vertex="1" parent="92">
                    <mxGeometry x="21.82" y="10" width="68.18" height="20" as="geometry"/>
                </mxCell>
                <mxCell id="95" value="" style="group" vertex="1" connectable="0" parent="123">
                    <mxGeometry x="260" y="120" width="120" height="260" as="geometry"/>
                </mxCell>
                <mxCell id="96" value="" style="rounded=1;whiteSpace=wrap;html=1;" vertex="1" parent="95">
                    <mxGeometry width="120" height="260" as="geometry"/>
                </mxCell>
                <mxCell id="97" value="/logout" style="text;html=1;strokeColor=none;fillColor=none;align=center;verticalAlign=middle;whiteSpace=wrap;rounded=0;" vertex="1" parent="95">
                    <mxGeometry x="21.82" y="10" width="68.18" height="20" as="geometry"/>
                </mxCell>
                <mxCell id="100" value="destruye&lt;br&gt;la session" style="text;html=1;strokeColor=none;fillColor=none;align=center;verticalAlign=middle;whiteSpace=wrap;rounded=0;" vertex="1" parent="95">
                    <mxGeometry y="60" width="120" height="150" as="geometry"/>
                </mxCell>
                <mxCell id="109" style="edgeStyle=orthogonalEdgeStyle;rounded=0;orthogonalLoop=1;jettySize=auto;html=1;" edge="1" parent="123" source="108" target="85">
                    <mxGeometry relative="1" as="geometry"/>
                </mxCell>
                <mxCell id="110" style="edgeStyle=orthogonalEdgeStyle;rounded=0;orthogonalLoop=1;jettySize=auto;html=1;entryX=0.5;entryY=0;entryDx=0;entryDy=0;" edge="1" parent="123" source="108" target="93">
                    <mxGeometry relative="1" as="geometry"/>
                </mxCell>
                <mxCell id="111" style="edgeStyle=orthogonalEdgeStyle;rounded=0;orthogonalLoop=1;jettySize=auto;html=1;entryX=0.5;entryY=0;entryDx=0;entryDy=0;" edge="1" parent="123" source="108" target="96">
                    <mxGeometry relative="1" as="geometry"/>
                </mxCell>
                <mxCell id="108" value="GOOGLE" style="rounded=1;whiteSpace=wrap;html=1;" vertex="1" parent="123">
                    <mxGeometry x="130" width="120" height="60" as="geometry"/>
                </mxCell>
                <mxCell id="125" value="" style="group" vertex="1" connectable="0" parent="1">
                    <mxGeometry x="771" y="450" width="219" height="220" as="geometry"/>
                </mxCell>
                <mxCell id="116" value="" style="rounded=1;whiteSpace=wrap;html=1;" vertex="1" parent="125">
                    <mxGeometry width="219" height="220" as="geometry"/>
                </mxCell>
                <mxCell id="124" value="" style="group" vertex="1" connectable="0" parent="125">
                    <mxGeometry x="56" y="20" width="100" height="115" as="geometry"/>
                </mxCell>
                <mxCell id="118" value="/viewRole" style="text;html=1;strokeColor=none;fillColor=none;align=center;verticalAlign=middle;whiteSpace=wrap;rounded=0;" vertex="1" parent="124">
                    <mxGeometry width="100" height="20" as="geometry"/>
                </mxCell>
                <mxCell id="119" value="/setRole" style="text;html=1;strokeColor=none;fillColor=none;align=center;verticalAlign=middle;whiteSpace=wrap;rounded=0;" vertex="1" parent="124">
                    <mxGeometry y="30" width="100" height="20" as="geometry"/>
                </mxCell>
                <mxCell id="120" value="/updateRole" style="text;html=1;strokeColor=none;fillColor=none;align=center;verticalAlign=middle;whiteSpace=wrap;rounded=0;" vertex="1" parent="124">
                    <mxGeometry y="60" width="100" height="20" as="geometry"/>
                </mxCell>
                <mxCell id="121" value="/deleteRole" style="text;html=1;strokeColor=none;fillColor=none;align=center;verticalAlign=middle;whiteSpace=wrap;rounded=0;" vertex="1" parent="124">
                    <mxGeometry y="95" width="100" height="20" as="geometry"/>
                </mxCell>
                <mxCell id="8" value="front" style="rounded=1;whiteSpace=wrap;html=1;" parent="1" vertex="1">
                    <mxGeometry x="170" y="850" width="120" height="60" as="geometry"/>
                </mxCell>
                <mxCell id="130" value="&lt;h1&gt;&lt;div style=&quot;color: rgb(248 , 248 , 242) ; font-family: &amp;#34;menlo&amp;#34; , &amp;#34;monaco&amp;#34; , &amp;#34;courier new&amp;#34; , monospace ; font-size: 12px ; font-weight: 400 ; text-align: center&quot;&gt;un usuario administrador puede crear mas usuarios y debe asignarles roles a cada uno de los nuevos usuarios&lt;/div&gt;&lt;div style=&quot;color: rgb(248 , 248 , 242) ; font-family: &amp;#34;menlo&amp;#34; , &amp;#34;monaco&amp;#34; , &amp;#34;courier new&amp;#34; , monospace ; font-size: 12px ; font-weight: 400 ; text-align: center&quot;&gt;un usuario puede registrarse pero nunca cambiarse su rol ya que debe hacer un administrador&lt;/div&gt;&lt;div style=&quot;color: rgb(248 , 248 , 242) ; font-family: &amp;#34;menlo&amp;#34; , &amp;#34;monaco&amp;#34; , &amp;#34;courier new&amp;#34; , monospace ; font-size: 12px ; font-weight: 400 ; text-align: center&quot;&gt;siempre debe existir un usuario administrador registrado&lt;/div&gt;&lt;/h1&gt;" style="text;html=1;strokeColor=none;fillColor=none;spacing=5;spacingTop=-20;whiteSpace=wrap;overflow=hidden;rounded=0;" vertex="1" parent="1">
                    <mxGeometry x="10" y="140" width="810" height="60" as="geometry"/>
                </mxCell>
            </root>
        </mxGraphModel>
    </diagram>
</mxfile>